<mxfile host="Electron" modified="2024-12-11T14:44:12.640Z" agent="Mozilla/5.0 (Windows NT 10.0; Win64; x64) AppleWebKit/537.36 (KHTML, like Gecko) draw.io/23.1.5 Chrome/120.0.6099.109 Electron/28.1.0 Safari/537.36" etag="EvKpK_ZxUVwNVfBzc94k" version="23.1.5" type="device">
  <diagram name="Page-1" id="2a216829-ef6e-dabb-86c1-c78162f3ba2b">
    <mxGraphModel dx="4742.1" dy="1644" grid="1" gridSize="10" guides="1" tooltips="1" connect="1" arrows="1" fold="1" page="1" pageScale="1.15" pageWidth="827" pageHeight="1169" background="none" math="0" shadow="0">
      <root>
        <mxCell id="0" />
        <mxCell id="1" parent="0" />
        <mxCell id="TcEk-eqRXdCZcIsFPlTk-31" style="edgeStyle=orthogonalEdgeStyle;rounded=0;orthogonalLoop=1;jettySize=auto;html=1;exitX=1;exitY=0.5;exitDx=0;exitDy=0;exitPerimeter=0;entryX=0;entryY=0.5;entryDx=0;entryDy=0;" edge="1" parent="1" source="TcEk-eqRXdCZcIsFPlTk-15" target="TcEk-eqRXdCZcIsFPlTk-18">
          <mxGeometry relative="1" as="geometry" />
        </mxCell>
        <mxCell id="TcEk-eqRXdCZcIsFPlTk-56" value="Button Settings" style="edgeLabel;html=1;align=center;verticalAlign=bottom;resizable=0;points=[];labelPosition=center;verticalLabelPosition=top;spacing=4;labelBackgroundColor=#FFFFFF;" vertex="1" connectable="0" parent="TcEk-eqRXdCZcIsFPlTk-31">
          <mxGeometry x="-0.0476" relative="1" as="geometry">
            <mxPoint x="-15" as="offset" />
          </mxGeometry>
        </mxCell>
        <mxCell id="TcEk-eqRXdCZcIsFPlTk-70" style="edgeStyle=orthogonalEdgeStyle;rounded=0;orthogonalLoop=1;jettySize=auto;html=1;exitX=1;exitY=0.5;exitDx=0;exitDy=0;exitPerimeter=0;entryX=1;entryY=0.75;entryDx=0;entryDy=0;jumpStyle=line;" edge="1" parent="1" source="TcEk-eqRXdCZcIsFPlTk-68" target="TcEk-eqRXdCZcIsFPlTk-12">
          <mxGeometry relative="1" as="geometry">
            <Array as="points">
              <mxPoint x="-1443.23" y="1140.65" />
              <mxPoint x="-1443.23" y="655.65" />
            </Array>
          </mxGeometry>
        </mxCell>
        <mxCell id="TcEk-eqRXdCZcIsFPlTk-72" value="Nein" style="edgeLabel;html=1;align=center;verticalAlign=bottom;resizable=0;points=[];labelPosition=center;verticalLabelPosition=top;" vertex="1" connectable="0" parent="TcEk-eqRXdCZcIsFPlTk-70">
          <mxGeometry x="-0.9" relative="1" as="geometry">
            <mxPoint as="offset" />
          </mxGeometry>
        </mxCell>
        <mxCell id="TcEk-eqRXdCZcIsFPlTk-3" value="Device einschalten" style="shape=mxgraph.bpmn.shape;html=1;verticalLabelPosition=top;labelBackgroundColor=#ffffff;verticalAlign=bottom;perimeter=ellipsePerimeter;outline=standard;symbol=general;labelPosition=center;align=center;" vertex="1" parent="1">
          <mxGeometry x="-1568.23" y="72.65" width="50" height="50" as="geometry" />
        </mxCell>
        <mxCell id="TcEk-eqRXdCZcIsFPlTk-4" style="edgeStyle=orthogonalEdgeStyle;rounded=0;orthogonalLoop=1;jettySize=auto;html=1;exitX=0.5;exitY=1;exitDx=0;exitDy=0;entryX=0.5;entryY=0;entryDx=0;entryDy=0;" edge="1" parent="1" source="TcEk-eqRXdCZcIsFPlTk-5" target="TcEk-eqRXdCZcIsFPlTk-7">
          <mxGeometry relative="1" as="geometry" />
        </mxCell>
        <mxCell id="TcEk-eqRXdCZcIsFPlTk-5" value="Startupsequenz&lt;br&gt;LED/Sound" style="shape=ext;rounded=1;html=1;whiteSpace=wrap;" vertex="1" parent="1">
          <mxGeometry x="-1603.23" y="192.65" width="120" height="80" as="geometry" />
        </mxCell>
        <mxCell id="TcEk-eqRXdCZcIsFPlTk-13" style="edgeStyle=orthogonalEdgeStyle;rounded=0;orthogonalLoop=1;jettySize=auto;html=1;entryX=0.5;entryY=0;entryDx=0;entryDy=0;" edge="1" parent="1" source="TcEk-eqRXdCZcIsFPlTk-7" target="TcEk-eqRXdCZcIsFPlTk-11">
          <mxGeometry relative="1" as="geometry" />
        </mxCell>
        <mxCell id="TcEk-eqRXdCZcIsFPlTk-7" value="Spielbeginn&lt;br&gt;Level = 0" style="shape=ext;rounded=1;html=1;whiteSpace=wrap;" vertex="1" parent="1">
          <mxGeometry x="-1603.23" y="322.65" width="120" height="80" as="geometry" />
        </mxCell>
        <mxCell id="TcEk-eqRXdCZcIsFPlTk-8" style="edgeStyle=orthogonalEdgeStyle;rounded=0;html=1;jettySize=auto;orthogonalLoop=1;" edge="1" parent="1" source="TcEk-eqRXdCZcIsFPlTk-3" target="TcEk-eqRXdCZcIsFPlTk-5">
          <mxGeometry relative="1" as="geometry" />
        </mxCell>
        <mxCell id="TcEk-eqRXdCZcIsFPlTk-14" style="edgeStyle=orthogonalEdgeStyle;rounded=0;orthogonalLoop=1;jettySize=auto;html=1;exitX=0.5;exitY=1;exitDx=0;exitDy=0;entryX=0.5;entryY=0;entryDx=0;entryDy=0;" edge="1" parent="1" source="TcEk-eqRXdCZcIsFPlTk-11" target="TcEk-eqRXdCZcIsFPlTk-12">
          <mxGeometry relative="1" as="geometry" />
        </mxCell>
        <mxCell id="TcEk-eqRXdCZcIsFPlTk-11" value="SimonSays Sequenz abspielen&lt;br&gt;Level +1&lt;br&gt;LED/Sound" style="shape=ext;rounded=1;html=1;whiteSpace=wrap;" vertex="1" parent="1">
          <mxGeometry x="-1603.23" y="459.65" width="120" height="80" as="geometry" />
        </mxCell>
        <mxCell id="TcEk-eqRXdCZcIsFPlTk-12" value="Warten auf Benutzereingabe" style="shape=ext;rounded=1;html=1;whiteSpace=wrap;" vertex="1" parent="1">
          <mxGeometry x="-1603.23" y="595.65" width="120" height="80" as="geometry" />
        </mxCell>
        <mxCell id="TcEk-eqRXdCZcIsFPlTk-57" style="edgeStyle=orthogonalEdgeStyle;rounded=0;orthogonalLoop=1;jettySize=auto;html=1;exitX=0.5;exitY=1;exitDx=0;exitDy=0;exitPerimeter=0;entryX=0.5;entryY=0;entryDx=0;entryDy=0;" edge="1" parent="1" source="TcEk-eqRXdCZcIsFPlTk-15" target="TcEk-eqRXdCZcIsFPlTk-54">
          <mxGeometry relative="1" as="geometry" />
        </mxCell>
        <mxCell id="TcEk-eqRXdCZcIsFPlTk-58" value="Spielbutton" style="edgeLabel;html=1;align=center;verticalAlign=middle;resizable=0;points=[];" vertex="1" connectable="0" parent="TcEk-eqRXdCZcIsFPlTk-57">
          <mxGeometry x="-0.16" relative="1" as="geometry">
            <mxPoint as="offset" />
          </mxGeometry>
        </mxCell>
        <mxCell id="TcEk-eqRXdCZcIsFPlTk-15" value="" style="shape=mxgraph.bpmn.gateway2;html=1;verticalLabelPosition=bottom;labelBackgroundColor=#ffffff;verticalAlign=top;background=gateway;outline=none;symbol=none;points=[[0.25,0.25,0],[0.5,0,0],[0.75,0.25,0],[1,0.5,0],[0.75,0.75,0],[0.5,1,0],[0.25,0.75,0],[0,0.5,0]];perimeter=rhombusPerimeter;outlineConnect=0;gwType=exclusive;labelPosition=left;align=right;" vertex="1" parent="1">
          <mxGeometry x="-1568.23" y="712.65" width="50" height="50" as="geometry" />
        </mxCell>
        <mxCell id="TcEk-eqRXdCZcIsFPlTk-16" style="edgeStyle=orthogonalEdgeStyle;rounded=0;orthogonalLoop=1;jettySize=auto;html=1;exitX=0.5;exitY=1;exitDx=0;exitDy=0;entryX=0.5;entryY=0;entryDx=0;entryDy=0;entryPerimeter=0;" edge="1" parent="1" source="TcEk-eqRXdCZcIsFPlTk-12" target="TcEk-eqRXdCZcIsFPlTk-15">
          <mxGeometry relative="1" as="geometry" />
        </mxCell>
        <mxCell id="TcEk-eqRXdCZcIsFPlTk-37" style="edgeStyle=orthogonalEdgeStyle;rounded=0;orthogonalLoop=1;jettySize=auto;html=1;exitX=0.5;exitY=0;exitDx=0;exitDy=0;entryX=0.5;entryY=1;entryDx=0;entryDy=0;" edge="1" parent="1" source="TcEk-eqRXdCZcIsFPlTk-18" target="TcEk-eqRXdCZcIsFPlTk-32">
          <mxGeometry relative="1" as="geometry" />
        </mxCell>
        <mxCell id="TcEk-eqRXdCZcIsFPlTk-18" value="Benutzereingabe Einstellungen&lt;br&gt;n=0" style="shape=ext;rounded=1;html=1;whiteSpace=wrap;" vertex="1" parent="1">
          <mxGeometry x="-1413.23" y="697.65" width="120" height="80" as="geometry" />
        </mxCell>
        <mxCell id="TcEk-eqRXdCZcIsFPlTk-20" style="edgeStyle=elbowEdgeStyle;rounded=0;orthogonalLoop=1;jettySize=auto;html=1;entryX=0;entryY=0.5;entryDx=0;entryDy=0;exitX=0;exitY=0.5;exitDx=0;exitDy=0;exitPerimeter=0;" edge="1" parent="1" source="TcEk-eqRXdCZcIsFPlTk-23" target="TcEk-eqRXdCZcIsFPlTk-19">
          <mxGeometry relative="1" as="geometry">
            <mxPoint x="-1783.23" y="737.65" as="targetPoint" />
            <Array as="points">
              <mxPoint x="-1813.23" y="645.65" />
            </Array>
          </mxGeometry>
        </mxCell>
        <mxCell id="TcEk-eqRXdCZcIsFPlTk-25" value="Ja" style="edgeLabel;html=1;align=center;verticalAlign=middle;resizable=0;points=[];" vertex="1" connectable="0" parent="TcEk-eqRXdCZcIsFPlTk-20">
          <mxGeometry x="-0.7518" y="2" relative="1" as="geometry">
            <mxPoint as="offset" />
          </mxGeometry>
        </mxCell>
        <mxCell id="TcEk-eqRXdCZcIsFPlTk-28" style="edgeStyle=orthogonalEdgeStyle;rounded=0;orthogonalLoop=1;jettySize=auto;html=1;entryX=0.5;entryY=1;entryDx=0;entryDy=0;" edge="1" parent="1" source="TcEk-eqRXdCZcIsFPlTk-19" target="TcEk-eqRXdCZcIsFPlTk-27">
          <mxGeometry relative="1" as="geometry" />
        </mxCell>
        <mxCell id="TcEk-eqRXdCZcIsFPlTk-19" value="PlayerMode wechseln&lt;br&gt;Diplay Anzeige" style="shape=ext;rounded=1;html=1;whiteSpace=wrap;" vertex="1" parent="1">
          <mxGeometry x="-1783.23" y="697.65" width="120" height="80" as="geometry" />
        </mxCell>
        <mxCell id="TcEk-eqRXdCZcIsFPlTk-26" style="edgeStyle=orthogonalEdgeStyle;rounded=0;orthogonalLoop=1;jettySize=auto;html=1;exitX=0.5;exitY=0;exitDx=0;exitDy=0;exitPerimeter=0;entryX=0;entryY=0.5;entryDx=0;entryDy=0;" edge="1" parent="1" source="TcEk-eqRXdCZcIsFPlTk-23" target="TcEk-eqRXdCZcIsFPlTk-5">
          <mxGeometry relative="1" as="geometry" />
        </mxCell>
        <mxCell id="TcEk-eqRXdCZcIsFPlTk-30" value="Nein" style="edgeLabel;html=1;align=center;verticalAlign=middle;resizable=0;points=[];" vertex="1" connectable="0" parent="TcEk-eqRXdCZcIsFPlTk-26">
          <mxGeometry x="-0.68" y="2" relative="1" as="geometry">
            <mxPoint as="offset" />
          </mxGeometry>
        </mxCell>
        <mxCell id="TcEk-eqRXdCZcIsFPlTk-27" value="Warten x Sekunden" style="shape=ext;rounded=1;html=1;whiteSpace=wrap;" vertex="1" parent="1">
          <mxGeometry x="-1783.23" y="595.65" width="120" height="80" as="geometry" />
        </mxCell>
        <mxCell id="TcEk-eqRXdCZcIsFPlTk-29" style="edgeStyle=orthogonalEdgeStyle;rounded=0;orthogonalLoop=1;jettySize=auto;html=1;exitX=0.5;exitY=0;exitDx=0;exitDy=0;entryX=0.5;entryY=1;entryDx=0;entryDy=0;entryPerimeter=0;" edge="1" parent="1" source="TcEk-eqRXdCZcIsFPlTk-27" target="TcEk-eqRXdCZcIsFPlTk-23">
          <mxGeometry relative="1" as="geometry" />
        </mxCell>
        <mxCell id="TcEk-eqRXdCZcIsFPlTk-48" style="edgeStyle=orthogonalEdgeStyle;rounded=0;orthogonalLoop=1;jettySize=auto;html=1;entryX=0.5;entryY=1;entryDx=0;entryDy=0;" edge="1" parent="1" source="TcEk-eqRXdCZcIsFPlTk-32" target="TcEk-eqRXdCZcIsFPlTk-47">
          <mxGeometry relative="1" as="geometry" />
        </mxCell>
        <mxCell id="TcEk-eqRXdCZcIsFPlTk-32" value="Einstellungsmenü &lt;br&gt;&quot;n&quot; anzeigen" style="shape=ext;rounded=1;html=1;whiteSpace=wrap;" vertex="1" parent="1">
          <mxGeometry x="-1413.23" y="595.65" width="120" height="80" as="geometry" />
        </mxCell>
        <mxCell id="TcEk-eqRXdCZcIsFPlTk-42" style="edgeStyle=orthogonalEdgeStyle;rounded=0;orthogonalLoop=1;jettySize=auto;html=1;exitX=1;exitY=0.5;exitDx=0;exitDy=0;exitPerimeter=0;entryX=0.5;entryY=0;entryDx=0;entryDy=0;" edge="1" parent="1" source="TcEk-eqRXdCZcIsFPlTk-33" target="TcEk-eqRXdCZcIsFPlTk-36">
          <mxGeometry relative="1" as="geometry" />
        </mxCell>
        <mxCell id="TcEk-eqRXdCZcIsFPlTk-43" value="Drehgeber bewegt" style="edgeLabel;html=1;align=center;verticalAlign=bottom;resizable=0;points=[];labelPosition=center;verticalLabelPosition=top;" vertex="1" connectable="0" parent="TcEk-eqRXdCZcIsFPlTk-42">
          <mxGeometry x="-0.12" y="2" relative="1" as="geometry">
            <mxPoint x="-43" y="-1" as="offset" />
          </mxGeometry>
        </mxCell>
        <mxCell id="TcEk-eqRXdCZcIsFPlTk-51" style="edgeStyle=orthogonalEdgeStyle;rounded=0;orthogonalLoop=1;jettySize=auto;html=1;exitX=0.5;exitY=0;exitDx=0;exitDy=0;exitPerimeter=0;entryX=0.5;entryY=0;entryDx=0;entryDy=0;" edge="1" parent="1" source="TcEk-eqRXdCZcIsFPlTk-33" target="TcEk-eqRXdCZcIsFPlTk-50">
          <mxGeometry relative="1" as="geometry">
            <Array as="points">
              <mxPoint x="-1353.23" y="135.65" />
              <mxPoint x="-1023.23" y="135.65" />
            </Array>
          </mxGeometry>
        </mxCell>
        <mxCell id="TcEk-eqRXdCZcIsFPlTk-52" value="Einstellungsbutton gedrückt" style="edgeLabel;html=1;align=center;verticalAlign=middle;resizable=0;points=[];" vertex="1" connectable="0" parent="TcEk-eqRXdCZcIsFPlTk-51">
          <mxGeometry x="-0.9062" relative="1" as="geometry">
            <mxPoint as="offset" />
          </mxGeometry>
        </mxCell>
        <mxCell id="TcEk-eqRXdCZcIsFPlTk-33" value="" style="shape=mxgraph.bpmn.gateway2;html=1;verticalLabelPosition=top;labelBackgroundColor=#ffffff;verticalAlign=bottom;background=gateway;outline=none;symbol=none;points=[[0.25,0.25,0],[0.5,0,0],[0.75,0.25,0],[1,0.5,0],[0.75,0.75,0],[0.5,1,0],[0.25,0.75,0],[0,0.5,0]];perimeter=rhombusPerimeter;outlineConnect=0;gwType=exclusive;labelPosition=left;align=right;" vertex="1" parent="1">
          <mxGeometry x="-1378.23" y="206.65" width="50" height="50" as="geometry" />
        </mxCell>
        <mxCell id="TcEk-eqRXdCZcIsFPlTk-38" style="edgeStyle=orthogonalEdgeStyle;rounded=0;orthogonalLoop=1;jettySize=auto;html=1;entryX=1;entryY=0.25;entryDx=0;entryDy=0;exitX=0;exitY=0.5;exitDx=0;exitDy=0;exitPerimeter=0;" edge="1" parent="1" source="TcEk-eqRXdCZcIsFPlTk-33" target="TcEk-eqRXdCZcIsFPlTk-12">
          <mxGeometry relative="1" as="geometry">
            <Array as="points">
              <mxPoint x="-1443.23" y="231.65" />
              <mxPoint x="-1443.23" y="615.65" />
            </Array>
          </mxGeometry>
        </mxCell>
        <mxCell id="TcEk-eqRXdCZcIsFPlTk-39" value="Keine Eingabe erfolgt" style="edgeLabel;html=1;align=center;verticalAlign=middle;resizable=0;points=[];" vertex="1" connectable="0" parent="TcEk-eqRXdCZcIsFPlTk-38">
          <mxGeometry x="-0.0049" y="-3" relative="1" as="geometry">
            <mxPoint x="3" y="-117" as="offset" />
          </mxGeometry>
        </mxCell>
        <mxCell id="TcEk-eqRXdCZcIsFPlTk-35" value="Eingabe erkennen für x Sekunden" style="shape=ext;rounded=1;html=1;whiteSpace=wrap;" vertex="1" parent="1">
          <mxGeometry x="-1413.23" y="322.65" width="120" height="80" as="geometry" />
        </mxCell>
        <mxCell id="TcEk-eqRXdCZcIsFPlTk-44" style="edgeStyle=orthogonalEdgeStyle;rounded=0;orthogonalLoop=1;jettySize=auto;html=1;entryX=1;entryY=0.5;entryDx=0;entryDy=0;exitX=0.5;exitY=1;exitDx=0;exitDy=0;" edge="1" parent="1" source="TcEk-eqRXdCZcIsFPlTk-36" target="TcEk-eqRXdCZcIsFPlTk-47">
          <mxGeometry relative="1" as="geometry" />
        </mxCell>
        <mxCell id="TcEk-eqRXdCZcIsFPlTk-36" value="Einstellung ändern" style="shape=ext;rounded=1;html=1;whiteSpace=wrap;" vertex="1" parent="1">
          <mxGeometry x="-1233.23" y="322.65" width="120" height="80" as="geometry" />
        </mxCell>
        <mxCell id="TcEk-eqRXdCZcIsFPlTk-40" style="edgeStyle=orthogonalEdgeStyle;rounded=0;orthogonalLoop=1;jettySize=auto;html=1;entryX=0.5;entryY=1;entryDx=0;entryDy=0;entryPerimeter=0;" edge="1" parent="1" source="TcEk-eqRXdCZcIsFPlTk-35" target="TcEk-eqRXdCZcIsFPlTk-33">
          <mxGeometry relative="1" as="geometry" />
        </mxCell>
        <mxCell id="TcEk-eqRXdCZcIsFPlTk-49" style="edgeStyle=orthogonalEdgeStyle;rounded=0;orthogonalLoop=1;jettySize=auto;html=1;exitX=0.5;exitY=0;exitDx=0;exitDy=0;entryX=0.5;entryY=1;entryDx=0;entryDy=0;" edge="1" parent="1" source="TcEk-eqRXdCZcIsFPlTk-47" target="TcEk-eqRXdCZcIsFPlTk-35">
          <mxGeometry relative="1" as="geometry" />
        </mxCell>
        <mxCell id="TcEk-eqRXdCZcIsFPlTk-47" value="aktuelle Einstellung simulieren (LED/Sound)" style="shape=ext;rounded=1;html=1;whiteSpace=wrap;" vertex="1" parent="1">
          <mxGeometry x="-1413.23" y="459.65" width="120" height="80" as="geometry" />
        </mxCell>
        <mxCell id="TcEk-eqRXdCZcIsFPlTk-53" style="edgeStyle=orthogonalEdgeStyle;rounded=0;orthogonalLoop=1;jettySize=auto;html=1;exitX=0.5;exitY=1;exitDx=0;exitDy=0;entryX=1;entryY=0.5;entryDx=0;entryDy=0;" edge="1" parent="1" source="TcEk-eqRXdCZcIsFPlTk-50" target="TcEk-eqRXdCZcIsFPlTk-32">
          <mxGeometry relative="1" as="geometry" />
        </mxCell>
        <mxCell id="TcEk-eqRXdCZcIsFPlTk-50" value="Einstellung wechseln (n+1)&amp;nbsp;" style="shape=ext;rounded=1;html=1;whiteSpace=wrap;" vertex="1" parent="1">
          <mxGeometry x="-1083.23" y="459.65" width="120" height="80" as="geometry" />
        </mxCell>
        <mxCell id="TcEk-eqRXdCZcIsFPlTk-54" value="LED/Sound abspielen" style="shape=ext;rounded=1;html=1;whiteSpace=wrap;" vertex="1" parent="1">
          <mxGeometry x="-1603.23" y="812.65" width="120" height="80" as="geometry" />
        </mxCell>
        <mxCell id="TcEk-eqRXdCZcIsFPlTk-64" value="Nein" style="edgeStyle=orthogonalEdgeStyle;rounded=0;orthogonalLoop=1;jettySize=auto;html=1;entryX=1;entryY=0.5;entryDx=0;entryDy=0;labelPosition=center;verticalLabelPosition=top;align=center;verticalAlign=bottom;" edge="1" parent="1" source="TcEk-eqRXdCZcIsFPlTk-60" target="TcEk-eqRXdCZcIsFPlTk-63">
          <mxGeometry relative="1" as="geometry" />
        </mxCell>
        <mxCell id="TcEk-eqRXdCZcIsFPlTk-74" value="Ja" style="edgeStyle=orthogonalEdgeStyle;rounded=0;orthogonalLoop=1;jettySize=auto;html=1;exitX=0.5;exitY=1;exitDx=0;exitDy=0;exitPerimeter=0;entryX=0.5;entryY=0;entryDx=0;entryDy=0;" edge="1" parent="1" source="TcEk-eqRXdCZcIsFPlTk-60" target="TcEk-eqRXdCZcIsFPlTk-67">
          <mxGeometry relative="1" as="geometry" />
        </mxCell>
        <mxCell id="TcEk-eqRXdCZcIsFPlTk-60" value="&lt;i&gt;Eingabe korrekt?&lt;/i&gt;" style="shape=mxgraph.bpmn.gateway2;html=1;verticalLabelPosition=top;labelBackgroundColor=#ffffff;verticalAlign=bottom;background=gateway;outline=none;symbol=none;points=[[0.25,0.25,0],[0.5,0,0],[0.75,0.25,0],[1,0.5,0],[0.75,0.75,0],[0.5,1,0],[0.25,0.75,0],[0,0.5,0]];perimeter=rhombusPerimeter;outlineConnect=0;gwType=exclusive;labelPosition=right;align=left;spacing=-13;" vertex="1" parent="1">
          <mxGeometry x="-1568.23" y="925.65" width="50" height="50" as="geometry" />
        </mxCell>
        <mxCell id="TcEk-eqRXdCZcIsFPlTk-61" style="edgeStyle=orthogonalEdgeStyle;rounded=0;orthogonalLoop=1;jettySize=auto;html=1;exitX=0.5;exitY=1;exitDx=0;exitDy=0;entryX=0.5;entryY=0;entryDx=0;entryDy=0;entryPerimeter=0;" edge="1" parent="1" source="TcEk-eqRXdCZcIsFPlTk-54" target="TcEk-eqRXdCZcIsFPlTk-60">
          <mxGeometry relative="1" as="geometry" />
        </mxCell>
        <mxCell id="TcEk-eqRXdCZcIsFPlTk-66" style="edgeStyle=orthogonalEdgeStyle;rounded=0;orthogonalLoop=1;jettySize=auto;html=1;entryX=0;entryY=0.25;entryDx=0;entryDy=0;" edge="1" parent="1" source="TcEk-eqRXdCZcIsFPlTk-63" target="TcEk-eqRXdCZcIsFPlTk-5">
          <mxGeometry relative="1" as="geometry">
            <Array as="points">
              <mxPoint x="-1863.23" y="950.65" />
              <mxPoint x="-1863.23" y="212.65" />
            </Array>
          </mxGeometry>
        </mxCell>
        <mxCell id="TcEk-eqRXdCZcIsFPlTk-63" value="Losing&lt;br&gt;LED/Sound/Display" style="shape=ext;rounded=1;html=1;whiteSpace=wrap;" vertex="1" parent="1">
          <mxGeometry x="-1783.23" y="910.65" width="120" height="80" as="geometry" />
        </mxCell>
        <mxCell id="TcEk-eqRXdCZcIsFPlTk-67" value="Sequenz erreicht" style="shape=ext;rounded=1;html=1;whiteSpace=wrap;" vertex="1" parent="1">
          <mxGeometry x="-1603.23" y="1005.65" width="120" height="80" as="geometry" />
        </mxCell>
        <mxCell id="TcEk-eqRXdCZcIsFPlTk-76" value="Ja" style="edgeStyle=orthogonalEdgeStyle;rounded=0;orthogonalLoop=1;jettySize=auto;html=1;exitX=0.5;exitY=1;exitDx=0;exitDy=0;exitPerimeter=0;entryX=0.5;entryY=0;entryDx=0;entryDy=0;" edge="1" parent="1" source="TcEk-eqRXdCZcIsFPlTk-68" target="TcEk-eqRXdCZcIsFPlTk-73">
          <mxGeometry relative="1" as="geometry" />
        </mxCell>
        <mxCell id="TcEk-eqRXdCZcIsFPlTk-68" value="" style="shape=mxgraph.bpmn.gateway2;html=1;verticalLabelPosition=bottom;labelBackgroundColor=#ffffff;verticalAlign=top;background=gateway;outline=none;symbol=none;points=[[0.25,0.25,0],[0.5,0,0],[0.75,0.25,0],[1,0.5,0],[0.75,0.75,0],[0.5,1,0],[0.25,0.75,0],[0,0.5,0]];perimeter=rhombusPerimeter;outlineConnect=0;gwType=exclusive;labelPosition=left;align=right;" vertex="1" parent="1">
          <mxGeometry x="-1568.23" y="1115.65" width="50" height="50" as="geometry" />
        </mxCell>
        <mxCell id="TcEk-eqRXdCZcIsFPlTk-73" value="Winning LED/Sound/Display" style="shape=ext;rounded=1;html=1;whiteSpace=wrap;" vertex="1" parent="1">
          <mxGeometry x="-1603.23" y="1206.65" width="120" height="80" as="geometry" />
        </mxCell>
        <mxCell id="TcEk-eqRXdCZcIsFPlTk-75" style="edgeStyle=orthogonalEdgeStyle;rounded=0;orthogonalLoop=1;jettySize=auto;html=1;exitX=0.5;exitY=1;exitDx=0;exitDy=0;entryX=0.5;entryY=0;entryDx=0;entryDy=0;entryPerimeter=0;" edge="1" parent="1" source="TcEk-eqRXdCZcIsFPlTk-67" target="TcEk-eqRXdCZcIsFPlTk-68">
          <mxGeometry relative="1" as="geometry" />
        </mxCell>
        <mxCell id="TcEk-eqRXdCZcIsFPlTk-81" value="Device ausschalten" style="shape=mxgraph.bpmn.shape;html=1;verticalLabelPosition=bottom;labelBackgroundColor=#ffffff;verticalAlign=top;perimeter=ellipsePerimeter;outline=end;symbol=general;" vertex="1" parent="1">
          <mxGeometry x="-1198.23" y="1020.65" width="50" height="50" as="geometry" />
        </mxCell>
        <mxCell id="TcEk-eqRXdCZcIsFPlTk-23" value="&lt;i style=&quot;background-color: rgb(255, 255, 255);&quot;&gt;Erneuter Buttondruck erkannt&lt;/i&gt;" style="shape=mxgraph.bpmn.gateway2;html=1;verticalLabelPosition=top;labelBackgroundColor=#ffffff;verticalAlign=bottom;background=gateway;outline=none;symbol=none;points=[[0.25,0.25,0],[0.5,0,0],[0.75,0.25,0],[1,0.5,0],[0.75,0.75,0],[0.5,1,0],[0.25,0.75,0],[0,0.5,0]];perimeter=rhombusPerimeter;outlineConnect=0;gwType=exclusive;labelPosition=left;align=right;spacing=-10;" vertex="1" parent="1">
          <mxGeometry x="-1748.23" y="474.65" width="50" height="50" as="geometry" />
        </mxCell>
        <mxCell id="TcEk-eqRXdCZcIsFPlTk-21" style="edgeStyle=orthogonalEdgeStyle;rounded=0;orthogonalLoop=1;jettySize=auto;html=1;entryX=1;entryY=0.5;entryDx=0;entryDy=0;" edge="1" parent="1" source="TcEk-eqRXdCZcIsFPlTk-15" target="TcEk-eqRXdCZcIsFPlTk-19">
          <mxGeometry relative="1" as="geometry">
            <mxPoint x="-1663.23" y="737.65" as="targetPoint" />
          </mxGeometry>
        </mxCell>
        <mxCell id="TcEk-eqRXdCZcIsFPlTk-55" value="Button PlayerMode" style="edgeLabel;html=1;align=center;verticalAlign=bottom;resizable=0;points=[];labelPosition=center;verticalLabelPosition=top;spacing=0;labelBackgroundColor=default;" vertex="1" connectable="0" parent="TcEk-eqRXdCZcIsFPlTk-21">
          <mxGeometry x="0.1579" y="-1" relative="1" as="geometry">
            <mxPoint x="10" y="-4" as="offset" />
          </mxGeometry>
        </mxCell>
        <mxCell id="TcEk-eqRXdCZcIsFPlTk-78" style="edgeStyle=orthogonalEdgeStyle;rounded=0;orthogonalLoop=1;jettySize=auto;html=1;entryX=0;entryY=0.5;entryDx=0;entryDy=0;jumpStyle=line;" edge="1" parent="1" source="TcEk-eqRXdCZcIsFPlTk-73" target="TcEk-eqRXdCZcIsFPlTk-11">
          <mxGeometry relative="1" as="geometry">
            <Array as="points">
              <mxPoint x="-1633.23" y="1246.65" />
              <mxPoint x="-1633.23" y="499.65" />
            </Array>
          </mxGeometry>
        </mxCell>
        <mxCell id="TcEk-eqRXdCZcIsFPlTk-83" value="" style="childLayout=tableLayout;recursiveResize=0;shadow=0;fillColor=none;strokeColor=default;rounded=0;align=center;verticalAlign=middle;fontFamily=Helvetica;fontSize=18;fontColor=default;labelBackgroundColor=default;strokeWidth=2;" vertex="1" parent="1">
          <mxGeometry x="-1460" y="1250" width="476.95" height="72.84" as="geometry" />
        </mxCell>
        <mxCell id="TcEk-eqRXdCZcIsFPlTk-84" value="" style="shape=tableRow;horizontal=0;startSize=0;swimlaneHead=0;swimlaneBody=0;top=0;left=0;bottom=0;right=0;dropTarget=0;collapsible=0;recursiveResize=0;expand=0;fontStyle=0;fillColor=none;rounded=0;align=center;verticalAlign=middle;fontFamily=Helvetica;fontSize=12;fontColor=default;labelBackgroundColor=default;strokeWidth=3;" vertex="1" parent="TcEk-eqRXdCZcIsFPlTk-83">
          <mxGeometry width="476.95" height="19" as="geometry" />
        </mxCell>
        <mxCell id="TcEk-eqRXdCZcIsFPlTk-86" value="Sw Flussdiagramm" style="connectable=0;recursiveResize=0;strokeColor=inherit;fillColor=none;align=left;whiteSpace=wrap;html=1;rounded=0;verticalAlign=middle;fontFamily=Helvetica;fontSize=7;fontColor=default;labelBackgroundColor=default;fontStyle=1" vertex="1" parent="TcEk-eqRXdCZcIsFPlTk-84">
          <mxGeometry width="220" height="19" as="geometry">
            <mxRectangle width="220" height="19" as="alternateBounds" />
          </mxGeometry>
        </mxCell>
        <mxCell id="TcEk-eqRXdCZcIsFPlTk-87" value="Projekt SimonSays" style="connectable=0;recursiveResize=0;strokeColor=inherit;fillColor=none;align=right;whiteSpace=wrap;html=1;rounded=0;verticalAlign=middle;fontFamily=Helvetica;fontSize=7;fontColor=default;labelBackgroundColor=default;fontStyle=0" vertex="1" parent="TcEk-eqRXdCZcIsFPlTk-84">
          <mxGeometry x="220" width="130" height="19" as="geometry">
            <mxRectangle width="130" height="19" as="alternateBounds" />
          </mxGeometry>
        </mxCell>
        <mxCell id="TcEk-eqRXdCZcIsFPlTk-88" value="" style="connectable=0;recursiveResize=0;strokeColor=inherit;fillColor=none;align=center;whiteSpace=wrap;html=1;rounded=0;verticalAlign=middle;fontFamily=Helvetica;fontSize=7;fontColor=default;labelBackgroundColor=default;rowspan=3;colspan=1;" vertex="1" parent="TcEk-eqRXdCZcIsFPlTk-84">
          <mxGeometry x="350" width="127" height="55" as="geometry">
            <mxRectangle width="127" height="19" as="alternateBounds" />
          </mxGeometry>
        </mxCell>
        <mxCell id="TcEk-eqRXdCZcIsFPlTk-89" style="shape=tableRow;horizontal=0;startSize=0;swimlaneHead=0;swimlaneBody=0;top=0;left=0;bottom=0;right=0;dropTarget=0;collapsible=0;recursiveResize=0;expand=0;fontStyle=0;fillColor=none;rounded=0;align=center;verticalAlign=middle;fontFamily=Helvetica;fontSize=12;fontColor=default;labelBackgroundColor=default;" vertex="1" parent="TcEk-eqRXdCZcIsFPlTk-83">
          <mxGeometry y="19" width="476.95" height="19" as="geometry" />
        </mxCell>
        <mxCell id="TcEk-eqRXdCZcIsFPlTk-91" value="Techniker HF Systemtechnik/Elektrotechnik" style="connectable=0;recursiveResize=0;strokeColor=inherit;fillColor=none;align=left;whiteSpace=wrap;html=1;rounded=0;verticalAlign=middle;fontFamily=Helvetica;fontSize=7;fontColor=default;labelBackgroundColor=default;" vertex="1" parent="TcEk-eqRXdCZcIsFPlTk-89">
          <mxGeometry width="220" height="19" as="geometry">
            <mxRectangle width="220" height="19" as="alternateBounds" />
          </mxGeometry>
        </mxCell>
        <mxCell id="TcEk-eqRXdCZcIsFPlTk-92" value="" style="connectable=0;recursiveResize=0;strokeColor=inherit;fillColor=none;align=right;whiteSpace=wrap;html=1;rounded=0;verticalAlign=middle;fontFamily=Helvetica;fontSize=7;fontColor=default;labelBackgroundColor=default;" vertex="1" parent="TcEk-eqRXdCZcIsFPlTk-89">
          <mxGeometry x="220" width="130" height="19" as="geometry">
            <mxRectangle width="130" height="19" as="alternateBounds" />
          </mxGeometry>
        </mxCell>
        <mxCell id="TcEk-eqRXdCZcIsFPlTk-93" value="Value 6" style="connectable=0;recursiveResize=0;strokeColor=inherit;fillColor=none;align=center;whiteSpace=wrap;html=1;rounded=0;verticalAlign=middle;fontFamily=Helvetica;fontSize=11;fontColor=default;labelBackgroundColor=default;" vertex="1" visible="0" parent="TcEk-eqRXdCZcIsFPlTk-89">
          <mxGeometry x="350" width="127" height="19" as="geometry">
            <mxRectangle width="127" height="19" as="alternateBounds" />
          </mxGeometry>
        </mxCell>
        <mxCell id="TcEk-eqRXdCZcIsFPlTk-94" style="shape=tableRow;horizontal=0;startSize=0;swimlaneHead=0;swimlaneBody=0;top=0;left=0;bottom=0;right=0;dropTarget=0;collapsible=0;recursiveResize=0;expand=0;fontStyle=0;fillColor=none;rounded=0;align=center;verticalAlign=middle;fontFamily=Helvetica;fontSize=12;fontColor=default;labelBackgroundColor=default;" vertex="1" parent="TcEk-eqRXdCZcIsFPlTk-83">
          <mxGeometry y="38" width="476.95" height="17" as="geometry" />
        </mxCell>
        <mxCell id="TcEk-eqRXdCZcIsFPlTk-96" value="Studienfach Mikroprozessortechnik, Klasse TEL/TIS-22" style="connectable=0;recursiveResize=0;strokeColor=inherit;fillColor=none;align=left;whiteSpace=wrap;html=1;rounded=0;verticalAlign=middle;fontFamily=Helvetica;fontSize=7;fontColor=default;labelBackgroundColor=default;" vertex="1" parent="TcEk-eqRXdCZcIsFPlTk-94">
          <mxGeometry width="220" height="17" as="geometry">
            <mxRectangle width="220" height="17" as="alternateBounds" />
          </mxGeometry>
        </mxCell>
        <mxCell id="TcEk-eqRXdCZcIsFPlTk-97" value="Version 2.0" style="connectable=0;recursiveResize=0;strokeColor=inherit;fillColor=none;align=right;whiteSpace=wrap;html=1;rounded=0;verticalAlign=middle;fontFamily=Helvetica;fontSize=7;fontColor=default;labelBackgroundColor=default;" vertex="1" parent="TcEk-eqRXdCZcIsFPlTk-94">
          <mxGeometry x="220" width="130" height="17" as="geometry">
            <mxRectangle width="130" height="17" as="alternateBounds" />
          </mxGeometry>
        </mxCell>
        <mxCell id="TcEk-eqRXdCZcIsFPlTk-98" style="connectable=0;recursiveResize=0;strokeColor=inherit;fillColor=none;align=center;whiteSpace=wrap;html=1;rounded=0;verticalAlign=middle;fontFamily=Helvetica;fontSize=11;fontColor=default;labelBackgroundColor=default;" vertex="1" visible="0" parent="TcEk-eqRXdCZcIsFPlTk-94">
          <mxGeometry x="350" width="127" height="17" as="geometry">
            <mxRectangle width="127" height="17" as="alternateBounds" />
          </mxGeometry>
        </mxCell>
        <mxCell id="TcEk-eqRXdCZcIsFPlTk-99" style="shape=tableRow;horizontal=0;startSize=0;swimlaneHead=0;swimlaneBody=0;top=0;left=0;bottom=0;right=0;dropTarget=0;collapsible=0;recursiveResize=0;expand=0;fontStyle=0;fillColor=none;rounded=0;align=center;verticalAlign=middle;fontFamily=Helvetica;fontSize=12;fontColor=default;labelBackgroundColor=default;" vertex="1" parent="TcEk-eqRXdCZcIsFPlTk-83">
          <mxGeometry y="55" width="476.95" height="18" as="geometry" />
        </mxCell>
        <mxCell id="TcEk-eqRXdCZcIsFPlTk-101" value="Dozent: Christian Meier" style="connectable=0;recursiveResize=0;strokeColor=inherit;fillColor=none;align=left;whiteSpace=wrap;html=1;rounded=0;verticalAlign=middle;fontFamily=Helvetica;fontSize=7;fontColor=default;labelBackgroundColor=default;" vertex="1" parent="TcEk-eqRXdCZcIsFPlTk-99">
          <mxGeometry width="220" height="18" as="geometry">
            <mxRectangle width="220" height="18" as="alternateBounds" />
          </mxGeometry>
        </mxCell>
        <mxCell id="TcEk-eqRXdCZcIsFPlTk-102" value="Erfasser: Marc Mühlethaler" style="connectable=0;recursiveResize=0;strokeColor=inherit;fillColor=none;align=right;whiteSpace=wrap;html=1;rounded=0;verticalAlign=middle;fontFamily=Helvetica;fontSize=7;fontColor=default;labelBackgroundColor=default;" vertex="1" parent="TcEk-eqRXdCZcIsFPlTk-99">
          <mxGeometry x="220" width="130" height="18" as="geometry">
            <mxRectangle width="130" height="18" as="alternateBounds" />
          </mxGeometry>
        </mxCell>
        <mxCell id="TcEk-eqRXdCZcIsFPlTk-103" value="Datum: 11.12.2024" style="connectable=0;recursiveResize=0;strokeColor=inherit;fillColor=none;align=center;whiteSpace=wrap;html=1;rounded=0;verticalAlign=middle;fontFamily=Helvetica;fontSize=7;fontColor=default;labelBackgroundColor=default;" vertex="1" parent="TcEk-eqRXdCZcIsFPlTk-99">
          <mxGeometry x="350" width="127" height="18" as="geometry">
            <mxRectangle width="127" height="18" as="alternateBounds" />
          </mxGeometry>
        </mxCell>
        <mxCell id="TcEk-eqRXdCZcIsFPlTk-104" value="" style="shape=image;verticalLabelPosition=bottom;labelBackgroundColor=default;verticalAlign=top;aspect=fixed;imageAspect=0;image=https://www.teko.ch/static/img/TEKO-logo-share.png;" vertex="1" parent="1">
          <mxGeometry x="-1083.23" y="1259.84" width="63.69" height="40" as="geometry" />
        </mxCell>
      </root>
    </mxGraphModel>
  </diagram>
</mxfile>
